<?xml version="1.0" encoding="utf-8"?>
<!-- Generator: Adobe Illustrator 26.0.1, SVG Export Plug-In . SVG Version: 6.00 Build 0)  -->
<svg version="1.1" id="Layer_1" xmlns="http://www.w3.org/2000/svg" xmlns:xlink="http://www.w3.org/1999/xlink" x="0px" y="0px"
	 viewBox="0 0 880.9 308.9" style="enable-background:new 0 0 880.9 308.9;" xml:space="preserve">
<style type="text/css">
	.st0{fill:#FFFFFF;}
</style>
<g>
	<g>
		<path class="st0" d="M101.3,251.2c-3.4-1.6-7.5-2.6-12.2-2.9l-5.6-0.5c-3.2-0.2-5.5-1.1-7-2.6c-1.5-1.5-2.2-3.3-2.2-5.3
			c0-1.6,0.4-3.2,1.2-4.6c0.8-1.4,2-2.5,3.7-3.4c1.6-0.9,3.7-1.3,6.1-1.3c2.6,0,4.7,0.5,6.5,1.4c1.7,0.9,3,2.2,3.8,3.7
			c0.8,1.5,1.2,3.1,1.2,4.8h12.3c0-4.2-1-7.8-2.9-10.9c-1.9-3.1-4.7-5.5-8.2-7.2c-3.6-1.7-7.8-2.6-12.7-2.6c-4.7,0-8.8,0.8-12.3,2.4
			c-3.5,1.6-6.2,3.9-8.2,6.9c-1.9,3-2.9,6.5-2.9,10.7c0,5.5,1.8,9.9,5.5,13.2c3.7,3.3,8.6,5.3,14.8,5.8l5.7,0.5
			c4.1,0.4,7.2,1.2,9.1,2.6c1.9,1.4,2.9,3.2,2.9,5.4c0,1.8-0.5,3.5-1.5,4.9c-1,1.4-2.6,2.6-4.6,3.5c-2,0.9-4.6,1.3-7.7,1.3
			c-3.4,0-6.1-0.5-8.2-1.5c-2.1-1-3.6-2.3-4.6-3.9c-0.9-1.6-1.4-3.3-1.4-5H59.7c0,4.1,1,7.7,3,10.9c2,3.2,5,5.7,9,7.6
			c3.9,1.8,8.8,2.7,14.4,2.7c5.4,0,10-0.9,13.9-2.6c3.9-1.7,6.9-4.1,9.1-7.2c2.1-3.1,3.2-6.7,3.2-10.7c0-3.8-1-7.1-2.9-9.8
			C107.4,255,104.7,252.8,101.3,251.2z"/>
		<path class="st0" d="M274.8,224c-3.8-1.8-8.4-2.7-13.8-2.7h-9.7h-1.8h-10.8v65h12.6v-19.8h9.7c5.4,0,10-0.9,13.8-2.7
			c3.8-1.8,6.7-4.3,8.7-7.6c2-3.3,3-7.2,3-11.6v-1.4c0-4.5-1-8.4-3-11.7C281.5,228.3,278.6,225.8,274.8,224z M272.4,250
			c-0.9,1.8-2.3,3.2-4,4.2c-1.7,1-3.8,1.5-6.3,1.5h-10.8v-23.4H262c2.5,0,4.6,0.5,6.3,1.5c1.7,1,3.1,2.3,4,4.1
			c0.9,1.8,1.4,3.8,1.4,6.2C273.8,246.2,273.3,248.2,272.4,250z"/>
		<path class="st0" d="M422.6,221.8l-21.9,64.5h12.6l5.7-17.1H447l5.8,17.1h13l-22.6-64.5H422.6z M422.5,258.6l8.7-26.3h3.3l9,26.3
			H422.5z"/>
		<path class="st0" d="M629.1,272.8c-3.3,2.4-7.4,3.6-12.2,3.6c-3.3,0-6.2-0.6-8.7-1.7c-2.5-1.1-4.6-2.7-6.3-4.7
			c-1.7-2-3-4.4-3.8-7.1c-0.9-2.7-1.3-5.7-1.3-8.8c0-3.2,0.4-6.2,1.3-8.9c0.9-2.7,2.1-5.1,3.8-7.1c1.6-2,3.7-3.6,6.2-4.7
			c2.5-1.1,5.3-1.7,8.4-1.7c3.1,0,5.9,0.5,8.4,1.6c2.5,1.1,4.6,2.6,6.2,4.6c1.6,2,2.6,4.5,3.1,7.4h12.7c-0.5-5.1-2.1-9.5-4.7-13.3
			c-2.6-3.8-6.1-6.7-10.4-8.8c-4.4-2.1-9.5-3.2-15.3-3.2c-5.6,0-10.4,1-14.5,2.9c-4.1,1.9-7.5,4.5-10.1,7.6
			c-2.6,3.2-4.6,6.7-5.8,10.6c-1.3,3.9-1.9,7.8-1.9,11.8v1.9c0,3.7,0.6,7.4,1.9,11.3c1.2,3.9,3.2,7.5,5.8,10.8c2.6,3.3,6,6,10.2,8
			c4.2,2,9.2,3,15.1,3c6.1,0,11.4-1.1,15.8-3.4c4.4-2.3,7.9-5.4,10.4-9.2c2.5-3.8,4.1-8,4.7-12.6h-12.7
			C634.4,267,632.4,270.4,629.1,272.8z"/>
		<polygon class="st0" points="821.3,221.8 785.7,221.8 783.9,221.8 773.4,221.8 773.4,232.4 821.3,232.4 		"/>
		<polygon class="st0" points="773.4,275.7 773.4,286.3 783.9,286.3 785.7,286.3 821.3,286.3 821.3,275.7 		"/>
		<rect x="773.4" y="248.2" class="st0" width="47.9" height="10.6"/>
	</g>
	<g>
		<g>
			<path class="st0" d="M262.4,70.3c-4.7,1-9.1,2-13.3,3c-12.6,3-25,6.2-37,9.7c-2-2.9-4.5-5.5-7.4-7.8c-4.4-3.5-9.6-6.3-15.5-8.4
				c-5.9-2-12.3-3.1-19.2-3.1H59.7V20.9H170c14.5,0,27.7,2,39.9,5.9c12.2,3.9,22.6,9.5,31.4,16.6c8.8,7.2,15.6,15.7,20.5,25.6
				C262,69.5,262.2,69.9,262.4,70.3z"/>
			<path class="st0" d="M500,46.6h-4.7c-11.4,0-22.9,0.2-35.3,0.5h-0.1c-11.5,0.3-21.6,0.8-30.7,1.3c-44.1,2.3-87.6,7.2-129.4,14.4
				l-0.2,0c-1.7,0.3-3.4,0.6-5.1,0.9V20.9h137.2c12.8,0,24.2,1.5,34.2,4.6c10,3,18.5,7.3,25.4,12.7C494.6,40.7,497.5,43.5,500,46.6z
				"/>
			<path class="st0" d="M589.6,20.9v28.9c-3.3-0.2-6.6-0.4-9.9-0.6c-13-0.8-26.5-1.4-40.2-1.9c-0.4,0-0.7,0-1.1,0V20.9H589.6z"/>
			<path class="st0" d="M738.3,20.9v45.9l-7-1.1c-15-2.3-29.6-4.4-43.7-6.2V20.9H738.3z"/>
			<path class="st0" d="M821.3,20.9v60.8c-1.9-0.4-3.8-0.8-5.7-1.1c-13.5-2.6-26.9-5.1-39.8-7.4l-5.5-0.9V20.9H821.3z"/>
		</g>
		<g>
			<path class="st0" d="M809.5,106.3c-13-2.6-26.1-5-39.2-7.3c-3.9-0.7-7.8-1.3-11.7-2c-6.7-1.2-13.5-2.3-20.2-3.4
				c-3.9-0.6-7.9-1.2-11.8-1.9c-16.9-2.6-33.8-5-50.7-7.1c-32.6-4.1-65.2-7.2-98-9.2c-13.2-0.8-26.3-1.4-39.5-1.9
				c-3.9-0.1-7.8-0.3-11.7-0.4c-4.8-0.1-9.5-0.2-14.3-0.3c-5-0.1-10-0.1-15-0.1c-12.2,0-24.3,0.1-36.4,0.5c-10,0.3-20,0.7-30,1.2
				c-42.1,2.2-84,6.8-125.7,14c-11.8,2.1-23.8,4.5-36,7.2c-4.3,0.9-8.5,1.9-12.8,2.9c-13,3.1-26,6.5-39,10.3c-3.5,1-7,2-10.4,3.1
				c-24.3,7.4-48.4,16.1-71.7,26.2c-11,4.8-21.9,9.9-32.5,15.4c-14.9,7.7-29.3,16-43.1,25.1v1.9H170c14.3,0,27.5-2.1,39.6-6.4
				c12.2-4.3,22.6-10.1,31.4-17.6c5.4-4.6,10.1-9.7,14.1-15.4c2.5-3.5,4.7-7.3,6.6-11.2c2.1-4.3,3.8-8.7,4.9-13.4
				c5.4-1.4,10.8-2.8,16.2-4.1c1-0.2,2-0.5,3-0.7c2.9-0.7,5.8-1.4,8.7-2.1v70.9h50.7v-42.1h86.2c12.8,0,24.2-1.5,34.2-4.4
				c10-2.9,18.5-7,25.5-12.3c6.2-4.7,11.1-10.3,14.7-16.8c0.4-0.8,0.8-1.5,1.2-2.3c2.7-5.6,4.4-11.8,5.1-18.4
				c4.8-0.1,9.7-0.2,14.5-0.2c3.9-0.1,7.8-0.1,11.7-0.1v96.7h51.2v-63.5h98v63.5h50.7V96.8c6.8,0.8,13.5,1.7,20.2,2.7
				c3.9,0.5,7.8,1.1,11.7,1.6v79.5h51v-72C817.3,107.8,813.4,107,809.5,106.3z"/>
		</g>
	</g>
</g>
</svg>
